<?xml version="1.0" standalone="no"?>
<!DOCTYPE svg PUBLIC "-//W3C//DTD SVG 20010904//EN"
 "http://www.w3.org/TR/2001/REC-SVG-20010904/DTD/svg10.dtd">
<svg version="1.0" xmlns="http://www.w3.org/2000/svg"
 width="260.000000pt" height="260.000000pt" viewBox="0 0 260.000000 260.000000"
 preserveAspectRatio="xMidYMid meet">
<metadata>
Created by potrace 1.11, written by Peter Selinger 2001-2013
</metadata>
<g transform="translate(0.000000,260.000000) scale(0.100000,-0.100000)"
fill="#000000" stroke="none">
<path d="M1240 2323 c-27 -5 -85 -45 -112 -78 -38 -46 -47 -150 -17 -208 17
-32 78 -86 105 -93 l24 -6 0 -642 -1 -641 -42 -21 c-115 -56 -141 -214 -51
-307 112 -115 313 -70 355 80 25 91 -17 189 -99 228 l-42 20 0 640 1 640 40
19 c112 52 142 214 57 305 -55 59 -128 80 -218 64z"/>
</g>
</svg>
